<svg xmlns="http://www.w3.org/2000/svg">
  <symbol id="icon-burger" viewBox="0 0 24 24">
    <polygon fill="#ffffff" stroke="#102c12" stroke-linecap="round" stroke-linejoin="round" stroke-width="1.44" points="20 18 4 18 4 18 20 18 20 18"/>
    <polygon fill="#ffffff" stroke="#102c12" stroke-linecap="round" stroke-linejoin="round" stroke-width="1.44" points="20 14 4 14 4 14 20 14 20 14"/>
    <polygon fill="#ffffff" stroke="#102c12" stroke-linecap="round" stroke-linejoin="round" stroke-width="1.44" points="20 10 4 10 4 10 20 10 20 10"/>
    <polygon fill="#ffffff" stroke="#102c12" stroke-linecap="round" stroke-linejoin="round" stroke-width="1.44" points="20 6 4 6 4 6 20 6 20 6"/>
  </symbol>
  <symbol id="smaile" viewBox="0 0 32 32">
  <path d="M16 32c8.837 0 16-7.163 16-16s-7.163-16-16-16-16 7.163-16 16 7.163 16 16 16zM16 3c7.18 0 13 5.82 13 13s-5.82 13-13 13-13-5.82-13-13 5.82-13 13-13zM16.961 22.22c4.383-0.866 7.785-2.861 9.014-5.519-0.677 5.249-5.047 9.299-10.339 9.299-3.726 0-6.996-2.009-8.84-5.030 2.2 1.721 6.079 2.056 10.165 1.249zM20 11c0-1.657 0.895-3 2-3s2 1.343 2 3c0 1.657-0.895 3-2 3s-2-1.343-2-3zM11 11.609c-1.306 0-2.417 0.489-2.829 1.172-0.111-0.183-0.171-1.005-0.171-1.211 0-0.971 1.343-1.758 3-1.758s3 0.787 3 1.758c0 0.206-0.061 1.028-0.171 1.211-0.412-0.683-1.522-1.172-2.829-1.172z"></path>
  </symbol>
   <symbol id="icon-close" viewBox="0 0 32 32">
   <path fill-rule="evenodd" d="M16.293 17.707a1 1 0 001.414-1.414L11.414 10l6.293-6.293a1 1 0 00-1.414-1.414L10 8.586 3.707 2.293a1 1 0 00-1.414 1.414L8.586 10l-6.293 6.293a1 1 0 101.414 1.414L10 11.414l6.293 6.293z"/>
</svg>

